<svg width="89" height="88" viewBox="0 0 89 88" fill="none" xmlns="http://www.w3.org/2000/svg">
<path d="M61 69.3357C61 70.8071 53.6127 72 44.5 72C35.3873 72 28 70.8071 28 69.3357C28 67.8642 35.3873 68.0035 44.5 68.0035C53.6127 68.0035 61 67.8642 61 69.3357Z" fill="#B1B3CB"/>
<path d="M47 65C47.5 67 47 67.9338 49 68C51 68.0662 53 69 53.5 67" stroke="#B1B3CB" stroke-width="0.6" stroke-linecap="round"/>
<path d="M40 59.5C42.5 62 47 61.5 49 59.5" stroke="#B1B3CB" stroke-width="0.7" stroke-linecap="round"/>
<path d="M40 59C43.2275 60.4787 45.2108 60.4378 49 59" stroke="#B1B3CB" stroke-width="0.6" stroke-linecap="round"/>
<path d="M55.5 55.5C53.4043 57.2656 51.8508 57.5514 48.5451 57.0075C46.2582 57.0962 53.1286 57.9229 55.5 56.5V55.5Z" fill="#B1B3CB"/>
<path d="M48.5 57C51.8367 57.554 53.3948 57.2736 55.5 55.5V56.5C53 58 45.5 57 49 57" stroke="#B1B3CB" stroke-width="0.6" stroke-linecap="round"/>
<path d="M41 57C41 57 44.748 57.5183 48 57" stroke="#B1B3CB" stroke-width="0.6" stroke-linecap="round"/>
<path d="M34 55C38 56.5 39.3805 56.2764 42 55" stroke="#B1B3CB" stroke-width="0.6" stroke-linecap="round" stroke-linejoin="bevel"/>
<path d="M41 57C41 57.5 37.0259 57.8318 34 57V55.5C34.5 57 41 56.5 41 57Z" fill="#B1B3CB"/>
<path d="M34 57H33.7V57.2287L33.9205 57.2893L34 57ZM33.9205 57.2893C35.4701 57.7152 37.2515 57.8414 38.6438 57.7993C39.3399 57.7782 39.9503 57.7148 40.3936 57.6215C40.6127 57.5753 40.8071 57.5186 40.9537 57.4478C41.0264 57.4128 41.1034 57.3667 41.1662 57.3042C41.2299 57.2409 41.3 57.1383 41.3 57L40.7 57C40.7 56.9242 40.7391 56.8828 40.743 56.8789C40.7462 56.8757 40.7349 56.8872 40.6929 56.9075C40.6104 56.9473 40.4707 56.9921 40.2699 57.0343C39.8735 57.1178 39.3013 57.1791 38.6257 57.1995C37.2745 57.2404 35.5558 57.1165 34.0795 56.7107L33.9205 57.2893ZM33.7 55V55.5H34.3V55H33.7ZM33.7 55.5V57H34.3V55.5H33.7ZM41.3 57C41.3 56.7843 41.1256 56.6816 41.0624 56.6496C40.9788 56.6073 40.8777 56.5799 40.7807 56.5598C40.5814 56.5184 40.3086 56.49 39.9993 56.4665C39.6869 56.4428 39.3219 56.423 38.9335 56.4016C38.5437 56.3801 38.1284 56.3568 37.7097 56.3258C36.8684 56.2635 36.031 56.1711 35.3782 56.006C35.0514 55.9234 34.7865 55.8262 34.5949 55.7151C34.401 55.6027 34.3146 55.4951 34.2846 55.4051L33.7154 55.5949C33.8104 55.8799 34.0365 56.0848 34.2938 56.2341C34.5534 56.3847 34.8783 56.4985 35.2311 56.5877C35.9377 56.7664 36.8191 56.8615 37.6653 56.9242C38.0904 56.9557 38.511 56.9792 38.9005 57.0007C39.2914 57.0223 39.6491 57.0416 39.9538 57.0648C40.2617 57.0881 40.5007 57.1144 40.6587 57.1472C40.7405 57.1642 40.7795 57.1789 40.7914 57.1849C40.8236 57.2012 40.7 57.1532 40.7 57L41.3 57Z" fill="#B1B3CB"/>
<path d="M43.5 55C43.2014 55.1916 42.5721 55.2245 42.5 55" stroke="#BDC1DD" stroke-width="0.5" stroke-linecap="square" stroke-linejoin="bevel"/>
<path d="M50.4983 47C50.7744 47.1468 45.3497 51.7257 44.9989 52C44.648 52.2743 44.4349 52.3145 43.999 52C43.5631 51.6855 38.0112 47.0193 38.4995 47" stroke="#999DA9" stroke-width="0.8" stroke-linecap="round" stroke-linejoin="bevel"/>
<path d="M45.5 51.5H43.5L44.5 52" stroke="#999DA9" stroke-width="0.8" stroke-linecap="round" stroke-linejoin="bevel"/>
<path d="M52 44C49 46 41 46.5 37 44" stroke="#D0D6E4" stroke-width="0.8" stroke-linecap="round" stroke-linejoin="bevel"/>
<path d="M60.5 34.5L60.5 34.5C61 34 60.5 36 60.5 36L58.5 37L59 35.5C59.5 35.5 60 35 60.5 34.5Z" fill="#9697A9" stroke="#9697A9" stroke-width="0.3" stroke-linecap="round" stroke-linejoin="bevel"/>
<path d="M28.6846 34.8079C28.5607 34.6828 28.4883 34.5749 28.5 34.5C28.5223 34.3569 28.5983 34.5326 28.6846 34.8079C29.1912 35.3196 30.5594 36.1188 30.5594 36.1188L31 37C31 37 29.8814 36.7229 29.5 36.5C29.1186 36.2771 29 36 29 36C29 36 28.8281 35.266 28.6846 34.8079Z" fill="#9697A9"/>
<path d="M28.5 34.5C28.4406 34.8813 30.5594 36.1188 30.5594 36.1188L31 37C31 37 29.8814 36.7229 29.5 36.5C29.1186 36.2771 29 36 29 36C29 36 28.5594 34.1187 28.5 34.5Z" stroke="#9697A9" stroke-width="0.3" stroke-linejoin="round"/>
<path d="M57 39C49 42.5 41 42.5 33 39.5" stroke="#D1D2EF" stroke-width="0.8" stroke-linecap="round"/>
<path d="M31.5 27.5C43 17.5 51 22 58 27.5" stroke="#CFD5E2" stroke-width="0.8" stroke-linecap="round"/>
<path d="M42.5 64.5C41.8072 67.9372 42 67.7247 40 68C38 68.2753 36.5 69 35.5 67" stroke="#B1B3CB" stroke-width="0.7" stroke-linecap="round"/>
<path d="M37 43.5C28 48.5 32.5 56 37 56.5C41.5 57 43 55 42.5 53C42 51 38 52 37.5 52C37 52 35.9729 51.2242 36 50.5" stroke="#1D1D65" stroke-width="0.7" stroke-linecap="round" stroke-linejoin="bevel"/>
<path d="M44.5 17.5L44.5 17.9H44.5L44.5 17.5ZM31.5 26.5791L31.1264 26.4361L31.1264 26.4361L31.5 26.5791ZM44.5 17.9C52.7487 17.9 57.9911 24.5697 58.6016 31.2862C58.9061 34.6358 58.0516 37.9582 55.8714 40.4391C53.6963 42.9142 50.1591 44.6 45 44.6V45.4C50.3409 45.4 54.1162 43.6483 56.4723 40.9672C58.8234 38.2918 59.7189 34.7393 59.3984 31.2138C58.759 24.1803 53.2514 17.1 44.5 17.1L44.5 17.9ZM44.5 17.1C37.7685 17.1 33.0936 21.2978 31.1264 26.4361L31.8736 26.7221C33.7416 21.8428 38.151 17.9 44.5 17.9L44.5 17.1ZM31.1264 26.4361C29.5563 30.5372 29.6957 35.273 31.9109 38.9979C34.1372 42.7416 38.4215 45.4 45 45.4V44.6C38.6577 44.6 34.6586 42.0531 32.5985 38.589C30.5271 35.106 30.3769 30.6313 31.8736 26.7221L31.1264 26.4361Z" fill="#1D1D65"/>
<path d="M31.5 26.5L31.5855 26.9418C31.6517 26.929 31.7142 26.9015 31.7683 26.8612L31.5 26.5ZM28.5 28L28.0843 27.8277L28.5 28ZM28.5 36L28.9334 35.8789L28.5 36ZM31.5 37.5L31.931 37.3705C31.8738 37.1803 31.6987 37.05 31.5 37.05L31.5 37.5ZM58 26.5L57.7438 26.87C57.7708 26.8887 57.7998 26.9043 57.8301 26.9167L58 26.5ZM58 37.5L57.5631 37.3922C57.5252 37.5461 57.5709 37.7085 57.6835 37.8199C57.7962 37.9313 57.9591 37.9753 58.1125 37.9357L58 37.5ZM30.714 28.1526C30.5221 28.3106 30.4946 28.5942 30.6526 28.786C30.8106 28.9779 31.0942 29.0054 31.286 28.8474L30.714 28.1526ZM58 28.5L58.4438 28.4255C58.4248 28.3125 58.3635 28.2111 58.2723 28.1418L58 28.5ZM48 22.7246L47.8855 23.1598L47.8855 23.1598L48 22.7246ZM28.2832 34.9674L27.8346 35.0037L28.2832 34.9674ZM31.5 26.5C31.4145 26.0582 31.4144 26.0582 31.4143 26.0582C31.4143 26.0582 31.4142 26.0583 31.4141 26.0583C31.4139 26.0583 31.4137 26.0584 31.4135 26.0584C31.4129 26.0585 31.4123 26.0586 31.4114 26.0588C31.4098 26.0591 31.4075 26.0596 31.4047 26.0601C31.3989 26.0613 31.3908 26.0629 31.3804 26.0651C31.3596 26.0693 31.3297 26.0756 31.292 26.0838C31.2166 26.1003 31.1094 26.1248 30.9799 26.1573C30.7217 26.2222 30.3707 26.32 30.0036 26.4515C29.6393 26.5819 29.2441 26.7508 28.9054 26.962C28.5778 27.1663 28.2419 27.4475 28.0843 27.8277L28.9157 28.1723C28.9653 28.0527 29.1079 27.8964 29.3816 27.7257C29.6443 27.562 29.9732 27.4183 30.3071 27.2988C30.6383 27.1802 30.9595 27.0904 31.1991 27.0302C31.3185 27.0002 31.4166 26.9778 31.4842 26.9631C31.518 26.9557 31.5441 26.9502 31.5613 26.9467C31.57 26.9449 31.5764 26.9436 31.5805 26.9428C31.5825 26.9424 31.584 26.9421 31.5848 26.9419C31.5852 26.9419 31.5855 26.9418 31.5856 26.9418C31.5857 26.9418 31.5857 26.9418 31.5857 26.9418C31.5856 26.9418 31.5856 26.9418 31.5856 26.9418C31.5855 26.9418 31.5855 26.9418 31.5 26.5ZM28.0666 36.1211C28.3456 37.1193 29.3182 37.5529 30.0404 37.747C30.4208 37.8493 30.783 37.8995 31.0479 37.9245C31.1811 37.9371 31.2916 37.9435 31.3698 37.9467C31.409 37.9483 31.4401 37.9491 31.4622 37.9495C31.4732 37.9498 31.482 37.9499 31.4883 37.9499C31.4915 37.95 31.4941 37.95 31.496 37.95C31.497 37.95 31.4978 37.95 31.4985 37.95C31.4988 37.95 31.4991 37.95 31.4993 37.95C31.4995 37.95 31.4996 37.95 31.4997 37.95C31.4998 37.95 31.5 37.95 31.5 37.5C31.5 37.05 31.5002 37.05 31.5003 37.05C31.5003 37.05 31.5004 37.05 31.5004 37.05C31.5005 37.05 31.5006 37.05 31.5006 37.05C31.5006 37.05 31.5005 37.05 31.5002 37.05C31.4997 37.05 31.4986 37.05 31.4968 37.05C31.4934 37.0499 31.4876 37.0499 31.4796 37.0497C31.4637 37.0494 31.439 37.0488 31.4068 37.0474C31.3422 37.0448 31.2478 37.0394 31.1325 37.0285C30.9004 37.0066 30.5911 36.9631 30.274 36.8778C29.601 36.6969 29.0736 36.3805 28.9334 35.8789L28.0666 36.1211ZM58 26.5C57.8301 26.9167 57.8301 26.9167 57.8301 26.9167C57.8301 26.9167 57.8301 26.9167 57.8301 26.9167C57.8301 26.9167 57.8302 26.9167 57.8303 26.9168C57.8304 26.9168 57.8307 26.917 57.8312 26.9171C57.832 26.9175 57.8335 26.9181 57.8354 26.9189C57.8392 26.9204 57.8451 26.9229 57.8529 26.9261C57.8685 26.9326 57.8918 26.9423 57.9218 26.955C57.9817 26.9803 58.068 27.0173 58.1727 27.0636C58.3825 27.1565 58.6633 27.2856 58.9505 27.4318C59.2397 27.579 59.525 27.7382 59.7484 27.8907C59.8602 27.967 59.9481 28.0358 60.0105 28.0948C60.0785 28.159 60.091 28.1878 60.0874 28.1796L60.9126 27.8204C60.8454 27.666 60.7321 27.5383 60.6285 27.4405C60.5195 27.3375 60.3901 27.239 60.2556 27.1472C59.9865 26.9636 59.6626 26.7844 59.3587 26.6297C59.0526 26.4739 58.7562 26.3377 58.537 26.2407C58.4271 26.192 58.3361 26.153 58.2722 26.126C58.2403 26.1125 58.2151 26.102 58.1977 26.0947C58.189 26.0911 58.1822 26.0884 58.1775 26.0864C58.1752 26.0855 58.1734 26.0847 58.1721 26.0842C58.1714 26.0839 58.1709 26.0837 58.1706 26.0836C58.1704 26.0835 58.1702 26.0834 58.1701 26.0834C58.17 26.0834 58.17 26.0833 58.17 26.0833C58.1699 26.0833 58.1699 26.0833 58 26.5ZM60.0874 28.1796C60.0803 28.1634 60.0882 28.1776 60.1013 28.253C60.1126 28.3183 60.1241 28.4069 60.1354 28.5189C60.1578 28.7424 60.177 29.0384 60.1924 29.3874C60.2231 30.0843 60.2382 30.9729 60.2376 31.8748C60.2371 32.7765 60.221 33.6865 60.1899 34.4261C60.1743 34.7961 60.1552 35.1202 60.1327 35.3776C60.1093 35.6455 60.0847 35.8113 60.0653 35.8836L60.9347 36.1164C60.9768 35.9592 61.0062 35.7211 61.0293 35.4558C61.0534 35.1799 61.0732 34.8411 61.0891 34.4639C61.1208 33.7087 61.1371 32.7858 61.1376 31.8753C61.1382 30.9651 61.123 30.0623 61.0915 29.3478C61.0758 28.9911 61.0557 28.6764 61.0309 28.429C61.0185 28.3056 61.0044 28.1938 60.988 28.0993C60.9734 28.0148 60.9515 27.9097 60.9126 27.8204L60.0874 28.1796ZM60.0653 35.8836C60.0431 35.9667 59.9541 36.0985 59.7364 36.2611C59.5292 36.4159 59.259 36.5587 58.9773 36.682C58.6986 36.8041 58.4245 36.9003 58.2188 36.9662C58.1164 36.9989 58.0321 37.0239 57.974 37.0404C57.9449 37.0487 57.9225 37.0549 57.9078 37.0589C57.9004 37.0609 57.8949 37.0623 57.8915 37.0632C57.8898 37.0637 57.8886 37.064 57.8879 37.0642C57.8876 37.0643 57.8874 37.0643 57.8873 37.0643C57.8873 37.0644 57.8873 37.0644 57.8873 37.0643C57.8873 37.0643 57.8874 37.0643 57.8874 37.0643C57.8874 37.0643 57.8875 37.0643 58 37.5C58.1125 37.9357 58.1126 37.9357 58.1127 37.9357C58.1127 37.9357 58.1128 37.9356 58.1129 37.9356C58.1131 37.9356 58.1133 37.9355 58.1135 37.9354C58.114 37.9353 58.1146 37.9352 58.1154 37.935C58.1169 37.9346 58.1189 37.934 58.1215 37.9334C58.1266 37.932 58.1338 37.9301 58.143 37.9276C58.1614 37.9226 58.1876 37.9154 58.2207 37.906C58.2868 37.8871 58.3805 37.8594 58.4933 37.8233C58.7179 37.7513 59.0228 37.6446 59.3383 37.5064C59.6509 37.3696 59.9904 37.1947 60.275 36.9822C60.549 36.7775 60.834 36.4923 60.9347 36.1164L60.0653 35.8836ZM31.7683 26.8612C36.7126 23.1887 40.5484 21.3964 44.4385 21.3872C48.3334 21.3781 52.3793 23.1559 57.7438 26.87L58.2562 26.13C52.853 22.3892 48.6161 20.4774 44.4364 20.4872C40.252 20.4971 36.2217 22.4322 31.2317 26.1388L31.7683 26.8612ZM31.286 28.8474C34.9651 25.8183 38.1083 23.9401 41.1153 23.1429L40.8847 22.273C37.6955 23.1184 34.4342 25.0895 30.714 28.1526L31.286 28.8474ZM40.5588 17.9113C40.3125 19.1365 40.1067 20.1463 40.0688 20.9521C40.0305 21.7675 40.1575 22.474 40.6736 23.0178L41.3264 22.3982C41.0566 22.1139 40.9343 21.7062 40.9678 20.9944C41.0018 20.2732 41.189 19.3431 41.4412 18.0887L40.5588 17.9113ZM41.1153 23.1429C43.3742 22.5441 45.5721 22.5512 47.8855 23.1598L48.1145 22.2894C45.6548 21.6423 43.2985 21.6331 40.8847 22.273L41.1153 23.1429ZM47.8855 23.1598C50.9627 23.9693 53.7658 25.8462 57.7277 28.8582L58.2723 28.1418C54.3181 25.1355 51.3857 23.1499 48.1145 22.2894L47.8855 23.1598ZM47.5559 18.0727C47.7734 19.4014 47.9301 20.3875 47.9564 21.1228C47.9831 21.8735 47.8652 22.2231 47.6819 22.4063L48.3181 23.0429C48.7861 22.5751 48.884 21.8805 48.8558 21.0907C48.8271 20.2855 48.6581 19.2348 48.4441 17.9273L47.5559 18.0727ZM57.5562 28.5745C57.9991 31.2109 57.9987 33.4247 57.8884 34.9757C57.8332 35.7511 57.7507 36.3603 57.6825 36.7733C57.6484 36.9798 57.6179 37.1371 57.5963 37.2415C57.5854 37.2938 57.5768 37.3327 57.5711 37.358C57.5682 37.3707 57.566 37.3799 57.5647 37.3856C57.564 37.3885 57.5635 37.3904 57.5633 37.3916C57.5631 37.3921 57.563 37.3924 57.563 37.3926C57.563 37.3926 57.563 37.3926 57.563 37.3926C57.563 37.3925 57.563 37.3925 57.563 37.3925C57.5631 37.3924 57.5631 37.3922 58 37.5C58.4369 37.6078 58.4369 37.6076 58.437 37.6075C58.437 37.6074 58.437 37.6072 58.4371 37.6071C58.4371 37.6068 58.4372 37.6065 58.4373 37.6061C58.4375 37.6053 58.4377 37.6043 58.438 37.6031C58.4386 37.6007 58.4394 37.5974 58.4404 37.5932C58.4424 37.5848 58.4452 37.5729 58.4487 37.5575C58.4557 37.5267 58.4655 37.4821 58.4775 37.4242C58.5015 37.3083 58.5343 37.139 58.5704 36.9199C58.6428 36.4819 58.7288 35.845 58.7861 35.0396C58.9006 33.429 58.9002 31.1427 58.4438 28.4255L57.5562 28.5745ZM31.069 37.6295C31.2995 38.3965 31.9836 38.9863 32.8488 39.4409C33.7279 39.9028 34.8779 40.2695 36.1856 40.5491C38.8047 41.1091 42.1415 41.3369 45.4215 41.2273C48.699 41.1177 51.9555 40.6701 54.4074 39.8594C55.6313 39.4548 56.6843 38.9502 57.4397 38.3291C58.1996 37.7044 58.6947 36.9282 58.6947 36H57.7947C57.7947 36.5718 57.4985 37.1156 56.8681 37.6339C56.2333 38.1559 55.297 38.6174 54.1248 39.0049C51.7847 39.7787 48.622 40.2198 45.3914 40.3278C42.1632 40.4356 38.9028 40.2097 36.3738 39.669C35.1075 39.3983 34.0456 39.053 33.2674 38.6442C32.4753 38.228 32.0566 37.7885 31.931 37.3705L31.069 37.6295ZM28.0843 27.8277C27.9739 28.0941 27.9055 28.5548 27.857 29.0611C27.8061 29.5908 27.7718 30.2401 27.7535 30.9296C27.7167 32.3074 27.743 33.8717 27.8346 35.0037L28.7317 34.9311C28.6434 33.8401 28.617 32.3094 28.6531 30.9536C28.6712 30.2763 28.7047 29.6492 28.7528 29.147C28.8033 28.6214 28.865 28.2947 28.9157 28.1723L28.0843 27.8277ZM27.8346 35.0037C27.8907 35.6959 27.9844 35.8269 28.0666 36.1211L28.9334 35.8789C28.8293 35.5063 28.7785 35.5097 28.7317 34.9311L27.8346 35.0037Z" fill="#1D1D65"/>
<path d="M57 39.5C50.3994 43.4655 36.5 42.5 33 40" stroke="#1D1D65" stroke-width="0.6" stroke-linejoin="round"/>
<path d="M51.5 38C50.7627 37.6475 35.5 39.5 33 38C30.5 36.5 31.2764 29.4472 31.5 29C32 28 38.9791 22.7095 45 23C50.2333 23.2525 55.5 27.5 57.5 29C59.5 30.5 52.2373 38.3526 51.5 38Z" fill="#090A27"/>
<path d="M33 38L33.2058 37.657L33.2058 37.657L33 38ZM45 23L44.9807 23.3995L45 23ZM31.5 29L31.8578 29.1789L31.8578 29.1789L31.5 29ZM32.7942 38.343C33.1798 38.5744 33.7603 38.7175 34.4261 38.8122C35.106 38.9089 35.9274 38.9616 36.8321 38.9831C38.6423 39.0263 40.8202 38.9456 42.9329 38.8297C45.0451 38.7138 47.1075 38.5617 48.6754 38.4614C49.4621 38.4111 50.1223 38.3739 50.6073 38.3601C50.8504 38.3532 51.0428 38.3524 51.1821 38.3581C51.252 38.3609 51.3021 38.3651 51.3352 38.3696C51.3789 38.3755 51.3638 38.3783 51.3274 38.3609L51.6726 37.6391C51.5901 37.5997 51.5006 37.5847 51.4431 37.5769C51.3751 37.5676 51.2973 37.5621 51.2143 37.5587C51.0478 37.552 50.8342 37.5534 50.5846 37.5605C50.084 37.5747 49.4113 37.6127 48.6244 37.663C47.045 37.7641 44.9973 37.9152 42.8891 38.0309C40.7815 38.1465 38.6289 38.2257 36.8512 38.1834C35.9619 38.1622 35.175 38.1107 34.5388 38.0202C33.8886 37.9277 33.4452 37.8006 33.2058 37.657L32.7942 38.343ZM51.3274 38.3609C51.4442 38.4167 51.5589 38.4165 51.639 38.4062C51.7211 38.3956 51.7978 38.3704 51.8636 38.3432C51.995 38.2889 52.1367 38.2037 52.2794 38.1047C52.5682 37.9045 52.9211 37.6056 53.3042 37.2445C54.0731 36.5197 55.0008 35.5095 55.8408 34.4421C56.6777 33.3787 57.4453 32.2363 57.8765 31.2487C58.0911 30.7573 58.2361 30.2738 58.2465 29.8415C58.2572 29.3978 58.1238 28.9678 57.74 28.68L57.26 29.32C57.3762 29.4072 57.4533 29.5507 57.4468 29.8222C57.4399 30.105 57.3399 30.4784 57.1434 30.9286C56.7523 31.8242 56.0331 32.9041 55.2122 33.9473C54.3944 34.9865 53.4931 35.9671 52.7554 36.6623C52.3852 37.0113 52.0653 37.2797 51.8236 37.4473C51.7011 37.5323 51.6132 37.5811 51.5581 37.6038C51.5307 37.6152 51.525 37.6142 51.5365 37.6128C51.546 37.6115 51.6019 37.6054 51.6726 37.6391L51.3274 38.3609ZM57.74 28.68C56.7484 27.9363 54.9091 26.4816 52.6624 25.1857C50.4197 23.8922 47.7292 22.7312 45.0193 22.6005L44.9807 23.3995C47.5042 23.5213 50.0636 24.6103 52.2627 25.8787C54.4576 27.1447 56.2516 28.5637 57.26 29.32L57.74 28.68ZM45.0193 22.6005C41.899 22.4499 38.5704 23.7413 35.9865 25.1658C34.6887 25.8813 33.5641 26.6385 32.7292 27.2832C32.312 27.6053 31.9634 27.9021 31.7 28.1542C31.4505 28.3932 31.2391 28.6274 31.1422 28.8211L31.8578 29.1789C31.8859 29.1226 32.002 28.9727 32.2533 28.7321C32.4909 28.5046 32.8166 28.2264 33.2181 27.9164C34.0205 27.2969 35.1108 26.5621 36.3728 25.8664C38.9088 24.4682 42.0801 23.2596 44.9807 23.3995L45.0193 22.6005ZM31.1422 28.8211C31.1041 28.8974 31.0794 28.9949 31.0624 29.0699C31.0425 29.1579 31.0223 29.2666 31.0026 29.3911C30.9631 29.6408 30.9232 29.9683 30.89 30.3492C30.8236 31.1109 30.7829 32.0992 30.8291 33.1232C30.8751 34.1441 31.0081 35.2183 31.2978 36.1434C31.5844 37.0586 32.0449 37.8934 32.7942 38.343L33.2058 37.657C32.7051 37.3566 32.3252 36.7473 32.0612 35.9043C31.8003 35.0711 31.6727 34.0729 31.6282 33.0872C31.5839 32.1046 31.623 31.1521 31.687 30.4187C31.7189 30.0521 31.7568 29.7436 31.7928 29.5161C31.8109 29.402 31.8279 29.3119 31.8426 29.2467C31.8604 29.1685 31.868 29.1585 31.8578 29.1789L31.1422 28.8211Z" fill="black"/>
<path d="M34.0997 34.5419C33.6687 35.3772 33.0102 34.4993 33.0997 34.5419C32.598 30.5832 33.8975 28.7193 39.0997 26.0419C39.561 25.9188 39.7726 26.0614 40.0997 26.5419C36.6208 29.3408 34.5308 33.7066 34.0997 34.5419Z" fill="#A69999" stroke="#A69999" stroke-width="0.9" stroke-linejoin="round"/>
<path d="M58 29C57.5 28.5 58 29 57 28.5C57.4183 33.6299 53.1941 37.1375 51.5 37.5C49.8059 37.8625 41.4846 38.581 32.5 37.5C31 39 41 40.5497 44 40.5C47 40.4503 55.7259 39.3595 57.5 37C58 34.5 58.4115 32.1242 58 29Z" fill="black" stroke="black" stroke-width="0.3" stroke-linecap="round" stroke-linejoin="round"/>
<path d="M35.5 42.5C33.8745 42.8346 33.5 44 33.5 46" stroke="#1D1D65" stroke-width="0.6" stroke-linecap="round" stroke-linejoin="bevel"/>
<path d="M38 52C36.5 53.5 37 55.5 38.5 56.5" stroke="#1D1D65" stroke-width="0.7" stroke-linecap="round" stroke-linejoin="bevel"/>
<path d="M52 44C59.5 47.5 57.1809 55.7125 52.5 56.5C47.8191 57.2875 46 55 46.5 53.5C47 52 48.0293 51.3992 51.5 51.5C52.6423 51.6558 53 51 53 50.5" stroke="#1D1D65" stroke-width="0.7" stroke-linecap="round" stroke-linejoin="bevel"/>
<path d="M51 51.5C52.4206 53.9326 52 55.5 50.5 56.5" stroke="#1D1D65" stroke-width="0.7" stroke-linecap="round" stroke-linejoin="bevel"/>
<path d="M54 42.5C55.1331 43.1943 55.5 44.5 55.5 46.5" stroke="#1D1D65" stroke-width="0.6" stroke-linecap="round" stroke-linejoin="bevel"/>
<path d="M50.5 51V47C50.4916 46.8203 50.4485 46.7111 50.3542 46.6364M38.5 51.5V47C38.5447 46.836 38.5862 46.718 38.6677 46.6364M38.6677 46.6364C38.7387 46.5653 38.84 46.5219 39 46.5H50C50.1604 46.5354 50.2752 46.5738 50.3542 46.6364M38.6677 46.6364L43 50.1817M50.3542 46.6364L46.0041 50.1817M43 50.1817L44 51C44.3514 51.1958 44.5645 51.2248 45 51L46.0041 50.1817M43 50.1817L41.5 51.5M46.0041 50.1817L47.5 51.5" stroke="#1D1D65" stroke-width="0.8" stroke-linecap="round" stroke-linejoin="bevel"/>
<path d="M43 54.5H46" stroke="#1D1D65" stroke-width="0.8" stroke-linecap="square" stroke-linejoin="bevel"/>
<path d="M46.5 54.5C45 55 45 55.5 46.5 55" stroke="#1D1D65" stroke-width="0.5" stroke-linecap="square" stroke-linejoin="bevel"/>
<path d="M49 56.5C46.0549 56.8807 42.5283 56.8696 40 56.5" stroke="#1D1D65" stroke-width="0.6" stroke-linecap="round" stroke-linejoin="bevel"/>
<path d="M35.5 56C35.6396 58.937 35.7914 60.7963 36.1447 63M36.5 65C36.3623 64.2835 36.2453 63.6278 36.1447 63M33.5 55C33.4869 61.4317 33.5 63.5 36.1447 63" stroke="#1D1D65" stroke-width="0.6" stroke-linecap="round"/>
<path d="M42.5 62.5C39.6908 62.6133 37.5 62.5 36 62M49.5 59C46.759 60.5202 44.8686 61.0206 42.7503 60.472M39.5 59C40.7085 59.7244 41.7546 60.2141 42.7503 60.472M42.7503 60.472C42.4006 64.517 42.8841 68.1708 41 68.5C39.1159 68.8292 37 69 36 68.5C35 68 35 65.5 36.5 65C38 64.5 38.5 64.5 38.5 64.5M46.5 60.5C46.5 68.5 47 68.5 49 68.5C51 68.5 52 69 53 68.5C54 68 54 65.5 52.5 65M52.5 65C51 64.5 50.5 64.5 50.5 64.5M52.5 65C52.6533 64.3024 52.7917 63.6457 52.9132 63M53.5 56.5C53.5 59.1399 53.2861 61.0182 52.9132 63M55.5 55C55.867 61.3192 55.4769 63.4798 52.9132 63" stroke="#1D1D65" stroke-width="0.6" stroke-linecap="round"/>
<path d="M43 63.5H46.5M53 62C50.4611 62.6014 49.0379 62.7194 46.5 62.5" stroke="#1D1D65" stroke-width="0.6" stroke-linecap="round"/>
<path d="M42 55.5C43.3393 55.795 44 55.5 44 54.5" stroke="#1D1D65" stroke-width="0.6" stroke-linecap="round"/>
</svg>
