<svg width="89" height="88" viewBox="0 0 89 88" fill="none" xmlns="http://www.w3.org/2000/svg">
<path d="M57 39C49 42.5 41 42.5 33 39.5" stroke="#D1D2EF" stroke-width="0.8" stroke-linecap="round"/>
<path d="M31.5 27.5C43 17.5 51 22 58 27.5" stroke="#CFD5E2" stroke-width="0.8" stroke-linecap="round"/>
<path d="M61 69.3357C61 70.8071 53.6127 72 44.5 72C35.3873 72 28 70.8071 28 69.3357C28 67.8642 35.3873 68.0035 44.5 68.0035C53.6127 68.0035 61 67.8642 61 69.3357Z" fill="#B1B3CB"/>
<path d="M60 35.0802L60 35.0802C60.5 34.5802 60 36.5802 60 36.5802L58 37.5802L58.5 36.0802C59 36.0802 59.5 35.5802 60 35.0802Z" fill="#9697A9" stroke="#9697A9" stroke-width="0.3" stroke-linecap="round" stroke-linejoin="bevel"/>
<path d="M28.6846 34.8079C28.5607 34.6828 28.4883 34.5749 28.5 34.5C28.5223 34.3569 28.5983 34.5326 28.6846 34.8079C29.1912 35.3196 30.5594 36.1188 30.5594 36.1188L31 37C31 37 29.8814 36.7229 29.5 36.5C29.1186 36.2771 29 36 29 36C29 36 28.8281 35.266 28.6846 34.8079Z" fill="#9697A9"/>
<path d="M28.5 34.5C28.4406 34.8813 30.5594 36.1188 30.5594 36.1188L31 37C31 37 29.8814 36.7229 29.5 36.5C29.1186 36.2771 29 36 29 36C29 36 28.5594 34.1187 28.5 34.5Z" stroke="#9697A9" stroke-width="0.3" stroke-linejoin="round"/>
<path d="M54 54.5V56.5" stroke="#B1B3CB" stroke-width="0.7" stroke-linecap="round"/>
<path d="M54 56.5C54.0214 57.125 54.174 59.093 55 59.5C56.9682 59.535 57.8509 58.8243 58 58.4751C55.5 59 55.1871 58.2242 54 56.5Z" fill="#B1B3CB"/>
<path d="M54 56.5C54.0214 57.125 54.174 59.093 55 59.5C56.9682 59.535 57.8509 58.8243 58 58.4751M54 56.5C53.9947 56.3448 53.9975 56.479 54 56.5ZM54 56.5C55.1871 58.2242 55.5 59 58 58.4751M58 58.5C58.0303 58.5547 58.0314 58.4017 58 58.4751" stroke="#B1B3CB" stroke-width="0.7" stroke-linecap="round"/>
<path d="M53.5 55C53.0838 53.5432 52.8581 52.7533 52.5 51.5" stroke="#B1B3CB" stroke-width="0.7" stroke-linecap="round"/>
<path d="M53.5 55L48.5 55.5" stroke="#B1B3CB" stroke-width="0.7" stroke-linecap="round"/>
<path d="M44.5 17C61 17 65.5002 45.5 44.5 45C23.4998 44.5 28 17 44.5 17Z" stroke="#1D1D65" stroke-width="0.9"/>
<path d="M38.5 46C38.1592 45.6303 37.9302 45.4284 38 45C38.5014 44.8608 38.787 44.753 38.9517 44.1931L39 44C38.9852 44.0698 38.9691 44.134 38.9517 44.1931L38.5 46Z" fill="#3BB04E" stroke="#3BB04E" stroke-width="0.4" stroke-linecap="round"/>
<path d="M40.5 47.5L41 48.5C40.3095 48.7106 39.9741 48.6732 39.5703 48.0234L40.5 47.5Z" fill="#3BB04E"/>
<path d="M43.5 45.5L43 47L44 46.5L43.5 45.5Z" fill="#3BB04E"/>
<path d="M41 44H42L42.5 43.5C41.793 42.7962 41.3568 42.6886 40.5 43L41 44Z" fill="#3BB04E"/>
<path d="M39.5 48L39.5703 48.0234M39.5703 48.0234C39.9741 48.6732 40.3095 48.7106 41 48.5L40.5 47.5L39.5703 48.0234ZM43 47L43.5 45.5L44 46.5L43 47ZM42 44H41L40.5 43C41.3568 42.6886 41.793 42.7962 42.5 43.5L42 44Z" stroke="#3BB04E" stroke-width="0.4" stroke-linecap="round"/>
<path d="M38.5 46L39.5 45.5L40.5 47.5L38.5 48C37.9555 47.2391 37.9169 46.8026 38.5 46Z" fill="#F9443D" stroke="#F9443D" stroke-width="0.4" stroke-linecap="round"/>
<path d="M40.5 47L42.5 46L43 47.5C42.7986 48.0796 42.5582 48.2771 42 48.5L40.5 47Z" fill="#F9443D"/>
<path d="M41.5 44.5L43 46L43.5 45L43 44L41.5 44.5Z" fill="#F9443D"/>
<path d="M40.5 47L42.5 46L43 47.5C42.7986 48.0796 42.5582 48.2771 42 48.5L40.5 47Z" stroke="#F9443D" stroke-width="0.4" stroke-linecap="round"/>
<path d="M41.5 44.5L43 46L43.5 45L43 44L41.5 44.5Z" stroke="#F9443D" stroke-width="0.4" stroke-linecap="round"/>
<path d="M39.2929 45.5607C39.1741 45.3824 39.0871 45.1621 39.04 44.9201C38.9929 44.678 38.9873 44.4221 39.0236 44.176C39.0599 43.9298 39.137 43.7014 39.2477 43.5117C39.3585 43.3221 39.4993 43.1773 39.6572 43.0909C39.815 43.0045 39.9849 42.9791 40.151 43.0172C40.3172 43.0553 40.4742 43.1556 40.6077 43.3088C40.7412 43.462 40.8468 43.6632 40.9147 43.8938C40.9826 44.1244 41.0107 44.3769 40.9963 44.6281L40 44.5L39.2929 45.5607Z" fill="#F9443D"/>
<path d="M43 53.5C43.3241 54.0858 43.2692 54.4142 43 55" stroke="#6FD6F9" stroke-linecap="round" stroke-linejoin="round"/>
<path d="M47 65C47.5 67 47 67.9338 49 68C51 68.0662 53 69 53.5 67" stroke="#B1B3CB" stroke-width="0.6" stroke-linecap="round"/>
<path d="M40 59.5C42.5 62 47 61.5 49 59.5" stroke="#B1B3CB" stroke-width="0.7" stroke-linecap="round"/>
<path d="M40 59C43.2275 60.4787 45.2108 60.4378 49 59" stroke="#B1B3CB" stroke-width="0.6" stroke-linecap="round"/>
<path d="M41 57C41 57 47.5 57.5 48 56.5" stroke="#B1B3CB" stroke-width="0.6" stroke-linecap="round"/>
<path d="M34 55C38 56.5 39.3805 56.2764 42 55" stroke="#B1B3CB" stroke-width="0.6" stroke-linecap="round" stroke-linejoin="bevel"/>
<path d="M41 57C41 57.5 37.0259 57.8318 34 57V55.5C34.5 57 41 56.5 41 57Z" fill="#B1B3CB"/>
<path d="M34 57H33.7V57.2287L33.9205 57.2893L34 57ZM33.9205 57.2893C35.4701 57.7152 37.2515 57.8414 38.6438 57.7993C39.3399 57.7782 39.9503 57.7148 40.3936 57.6215C40.6127 57.5753 40.8071 57.5186 40.9537 57.4478C41.0264 57.4128 41.1034 57.3667 41.1662 57.3042C41.2299 57.2409 41.3 57.1383 41.3 57L40.7 57C40.7 56.9242 40.7391 56.8828 40.743 56.8789C40.7462 56.8757 40.7349 56.8872 40.6929 56.9075C40.6104 56.9473 40.4707 56.9921 40.2699 57.0343C39.8735 57.1178 39.3013 57.1791 38.6257 57.1995C37.2745 57.2404 35.5558 57.1165 34.0795 56.7107L33.9205 57.2893ZM33.7 55V55.5H34.3V55H33.7ZM33.7 55.5V57H34.3V55.5H33.7ZM41.3 57C41.3 56.7843 41.1256 56.6816 41.0624 56.6496C40.9788 56.6073 40.8777 56.5799 40.7807 56.5598C40.5814 56.5184 40.3086 56.49 39.9993 56.4665C39.6869 56.4428 39.3219 56.423 38.9335 56.4016C38.5437 56.3801 38.1284 56.3568 37.7097 56.3258C36.8684 56.2635 36.031 56.1711 35.3782 56.006C35.0514 55.9234 34.7865 55.8262 34.5949 55.7151C34.401 55.6027 34.3146 55.4951 34.2846 55.4051L33.7154 55.5949C33.8104 55.8799 34.0365 56.0848 34.2938 56.2341C34.5534 56.3847 34.8783 56.4985 35.2311 56.5877C35.9377 56.7664 36.8191 56.8615 37.6653 56.9242C38.0904 56.9557 38.511 56.9792 38.9005 57.0007C39.2914 57.0223 39.6491 57.0416 39.9538 57.0648C40.2617 57.0881 40.5007 57.1144 40.6587 57.1472C40.7405 57.1642 40.7795 57.1789 40.7914 57.1849C40.8236 57.2012 40.7 57.1532 40.7 57L41.3 57Z" fill="#B1B3CB"/>
<path d="M42.5 64.5C41.8072 67.9372 42 67.7247 40 68C38 68.2753 36.5 69 35.5 67" stroke="#B1B3CB" stroke-width="0.7" stroke-linecap="round"/>
<path d="M37 43.5C28 48.5 32.5 56 37 56.5C41.5 57 43 55 42.5 53C42 51 38 52 37.5 52C37 52 35.9729 51.2242 36 50.5" stroke="#1D1D65" stroke-width="0.7" stroke-linecap="round" stroke-linejoin="bevel"/>
<path d="M31 28.5C34.6996 25.4539 37.9019 23.5293 41 22.708M41 18C40.5015 20.4795 40.2141 21.8799 41 22.708M41 22.708C43.3364 22.0886 45.6135 22.0967 48 22.7246M48 18C48.4315 20.6362 48.6513 22.0736 48 22.7246M48 22.7246C51.1742 23.5596 54.0419 25.4908 58 28.5C58.8993 33.8537 58 37.5 58 37.5C58 37.5 60.2542 36.918 60.5 36C60.7458 35.082 60.7545 28.5847 60.5 28C60.2455 27.4153 58 26.5 58 26.5C47.2324 19.0451 41.4343 19.1209 31.5 26.5C31.5 26.5 28.9143 27.0003 28.5 28C28.1778 28.7775 28.1033 32.7444 28.2832 34.9674C28.3346 35.6028 28.4068 35.6666 28.5 36C28.9191 37.4998 31.5 37.5 31.5 37.5C32.9242 42.24 58.2447 42 58.2447 36" stroke="#1D1D65" stroke-width="0.9" stroke-linecap="round" stroke-linejoin="round"/>
<path d="M57 39.5C50.3994 43.4655 36.5 42.5 33 40" stroke="#1D1D65" stroke-width="0.6" stroke-linejoin="round"/>
<path d="M51.5 38C50.7627 37.6475 35.5 39.5 33 38C30.5 36.5 31.2764 29.4472 31.5 29C32 28 38.9791 22.7095 45 23C50.2333 23.2525 55.5 27.5 57.5 29C59.5 30.5 52.2373 38.3526 51.5 38Z" fill="#090A27"/>
<path d="M33 38L33.2058 37.657L33 38ZM45 23L44.9807 23.3995L45 23ZM31.5 29L31.8578 29.1789L31.5 29ZM32.7942 38.343C33.1798 38.5744 33.7603 38.7175 34.4261 38.8122C35.106 38.9089 35.9274 38.9616 36.8321 38.9831C38.6423 39.0263 40.8202 38.9456 42.9329 38.8297C45.0451 38.7138 47.1075 38.5617 48.6754 38.4614C49.4621 38.4111 50.1223 38.3739 50.6073 38.3601C50.8504 38.3532 51.0428 38.3524 51.1821 38.3581C51.252 38.3609 51.3021 38.3651 51.3352 38.3696C51.3789 38.3755 51.3638 38.3783 51.3274 38.3609L51.6726 37.6391C51.5901 37.5997 51.5006 37.5847 51.4431 37.5769C51.3751 37.5676 51.2973 37.5621 51.2143 37.5587C51.0478 37.552 50.8342 37.5534 50.5846 37.5605C50.084 37.5747 49.4113 37.6127 48.6244 37.663C47.045 37.7641 44.9973 37.9152 42.8891 38.0309C40.7815 38.1465 38.6289 38.2257 36.8512 38.1834C35.9619 38.1622 35.175 38.1107 34.5388 38.0202C33.8886 37.9277 33.4452 37.8006 33.2058 37.657L32.7942 38.343ZM51.3274 38.3609C51.4442 38.4167 51.5589 38.4165 51.639 38.4062C51.7211 38.3956 51.7978 38.3704 51.8636 38.3432C51.995 38.2889 52.1367 38.2037 52.2794 38.1047C52.5682 37.9045 52.9211 37.6056 53.3042 37.2445C54.0731 36.5197 55.0008 35.5095 55.8408 34.4421C56.6777 33.3787 57.4453 32.2363 57.8765 31.2487C58.0911 30.7573 58.2361 30.2738 58.2465 29.8415C58.2572 29.3978 58.1238 28.9678 57.74 28.68L57.26 29.32C57.3762 29.4072 57.4533 29.5507 57.4468 29.8222C57.4399 30.105 57.3399 30.4784 57.1434 30.9286C56.7523 31.8242 56.0331 32.9041 55.2122 33.9473C54.3944 34.9865 53.4931 35.9671 52.7554 36.6623C52.3852 37.0113 52.0653 37.2797 51.8236 37.4473C51.7011 37.5323 51.6131 37.5811 51.5581 37.6038C51.5307 37.6152 51.525 37.6142 51.5365 37.6128C51.546 37.6115 51.6019 37.6054 51.6726 37.6391L51.3274 38.3609ZM57.74 28.68C56.7484 27.9363 54.9091 26.4816 52.6624 25.1857C50.4197 23.8922 47.7292 22.7312 45.0193 22.6005L44.9807 23.3995C47.5042 23.5213 50.0636 24.6103 52.2627 25.8787C54.4576 27.1447 56.2516 28.5637 57.26 29.32L57.74 28.68ZM45.0193 22.6005C41.899 22.4499 38.5704 23.7413 35.9865 25.1658C34.6887 25.8813 33.5641 26.6385 32.7292 27.2832C32.312 27.6053 31.9634 27.9021 31.7 28.1542C31.4505 28.3932 31.2391 28.6274 31.1422 28.8211L31.8578 29.1789C31.8859 29.1226 32.002 28.9727 32.2533 28.7321C32.4909 28.5046 32.8166 28.2264 33.2181 27.9164C34.0205 27.2969 35.1108 26.5621 36.3728 25.8664C38.9088 24.4682 42.0801 23.2596 44.9807 23.3995L45.0193 22.6005ZM31.1422 28.8211C31.1041 28.8974 31.0794 28.9949 31.0624 29.0699C31.0425 29.1579 31.0223 29.2666 31.0026 29.3911C30.9631 29.6408 30.9232 29.9683 30.89 30.3492C30.8236 31.1109 30.7829 32.0992 30.8291 33.1232C30.8751 34.1441 31.0081 35.2183 31.2978 36.1434C31.5844 37.0586 32.0449 37.8934 32.7942 38.343L33.2058 37.657C32.7051 37.3566 32.3252 36.7473 32.0612 35.9043C31.8003 35.0711 31.6727 34.0729 31.6282 33.0872C31.5839 32.1046 31.623 31.1521 31.687 30.4187C31.7189 30.0521 31.7568 29.7436 31.7928 29.5161C31.8109 29.402 31.8279 29.3119 31.8426 29.2467C31.8604 29.1685 31.868 29.1585 31.8578 29.1789L31.1422 28.8211Z" fill="black"/>
<path d="M34.0997 34.5419C33.6687 35.3772 33.0102 34.4993 33.0997 34.5419C32.598 30.5832 33.8975 28.7193 39.0997 26.0419C39.561 25.9188 39.7726 26.0614 40.0997 26.5419C36.6208 29.3408 34.5308 33.7066 34.0997 34.5419Z" fill="#A69999" stroke="#A69999" stroke-width="0.9" stroke-linejoin="round"/>
<path d="M58 29C57.5 28.5 58 29 57 28.5C57.4183 33.6299 53.1941 37.1375 51.5 37.5C49.8059 37.8625 41.4846 38.581 32.5 37.5C31 39 41 40.5497 44 40.5C47 40.4503 55.7259 39.3595 57.5 37C58 34.5 58.4115 32.1242 58 29Z" fill="black" stroke="black" stroke-width="0.3" stroke-linecap="round" stroke-linejoin="round"/>
<path d="M35.5 42.5C33.8745 42.8346 33.5 44 33.5 46" stroke="#1D1D65" stroke-width="0.6" stroke-linecap="round" stroke-linejoin="bevel"/>
<path d="M38 52C36.5 53.5 37 55.5 38.5 56.5" stroke="#1D1D65" stroke-width="0.7" stroke-linecap="round" stroke-linejoin="bevel"/>
<path d="M54 42.5C55.1331 43.1943 55.5 44 55.5 46" stroke="#1D1D65" stroke-width="0.6" stroke-linecap="round" stroke-linejoin="bevel"/>
<path d="M35.5 56C35.6396 58.937 35.7914 60.7963 36.1447 63M36.5 65C36.3623 64.2835 36.2453 63.6278 36.1447 63M33.5 55C33.4869 61.4317 33.5 63.5 36.1447 63" stroke="#1D1D65" stroke-width="0.7" stroke-linecap="round"/>
<path d="M42.5 62.5C39.6908 62.6133 37.5 62.5 36 62M49.5 59C46.759 60.5202 44.8686 61.0206 42.7503 60.472M39.5 59C40.7085 59.7244 41.7546 60.2141 42.7503 60.472M42.7503 60.472C42.6543 61.5824 42.6211 62.6633 42.5845 63.6541M38.5 64.5C38.5 64.5 38 64.5 36.5 65C35 65.5 35 68 36 68.5C37 69 39.1159 68.8292 41 68.5C42.3669 68.2611 42.4877 66.2725 42.5845 63.6541M46.5 60.5C46.5 61.2315 46.5042 61.8961 46.5133 62.5M52.5 65C54 65.5 54 68 53 68.5C52 69 51 68.5 49 68.5C47.3078 68.5 46.6894 68.5 46.5392 63.6541M52.5 65C51 64.5 50.5 64.5 50.5 64.5M52.5 65C52.6533 64.3024 52.7917 63.6457 52.9132 63M53.5 53C53.5 55.3278 53.3337 59.7849 53.0387 62.1649M55.5 59.5C55.5 61 55.4769 63.4798 52.9132 63M52.9132 63C52.9573 62.7657 52.9991 62.484 53.0387 62.1649M46.5133 62.5C49.0964 62.6709 50.5214 62.5656 53.0387 62.1649M46.5133 62.5C46.5195 62.9124 46.5281 63.2964 46.5392 63.6541M46.5392 63.6541H42.5845" stroke="#1D1D65" stroke-width="0.7" stroke-linecap="round"/>
<path d="M41.5 52C41.5 52 47.5 52 48 52C48.5 52 48.5 56.5 48 56.5C47.5 56.5 43.0029 56.7959 40 56.5M47 54C46.219 54 45.5 54 45.5 54M47 55C46.4142 55 45.5 55 45.5 55M42.5 53C44.5 53.5 44.5 55 42 55.5" stroke="#1D1D65" stroke-width="0.7" stroke-linecap="round" stroke-linejoin="round"/>
<path d="M52.5 44C60 48 59.5 57.5 58 59C56.5 60.5 55.2335 59.2266 55 59C54.7665 58.7734 54.5 58.5 54.5 56C54.5 53.5 52 51 52 51" stroke="#1D1D65" stroke-width="0.7" stroke-linecap="round"/>
<path d="M40.9991 44.4313C40.6393 44.4255 40.2747 44.588 40 45C39 46.5 40.8073 47.6927 42 46.5C42.8651 45.6349 41.9491 44.4465 40.9991 44.4313Z" fill="#FFC021"/>
<path d="M40 51.5C40.6979 50.3748 40.9106 49.7169 41 48.5M42.5 46C42.5483 46.0604 42.5937 46.1202 42.6363 46.1794M40.5 47C40.5303 47.0909 40.5625 47.1777 40.5962 47.2604M42.6363 46.1794C45 45 43 42.5 41.5 44.5M42.6363 46.1794C44.3028 48.4956 41.6503 49.8422 40.5962 47.2604M41 44.5C41 42.0656 37.6812 42.4758 39.3538 45.2691M39.5 45.5C39.4475 45.4213 39.3989 45.3443 39.3538 45.2691M40.5962 47.2604C38.8496 49.1265 37.1698 47.3549 38.3089 46C38.5369 45.7288 38.8779 45.4743 39.3538 45.2691M40 45C41 43.5 43.1927 45.3073 42 46.5C40.8073 47.6927 39 46.5 40 45Z" stroke="#1D1D65" stroke-width="0.6" stroke-linecap="round"/>
<path d="M39 44.5C38 44 37.5 45.5 38.5 46" stroke="#1D1D65" stroke-width="0.4" stroke-linecap="round"/>
<path d="M39.5 48C39.5 49 41 49.5 41 48" stroke="#1D1D65" stroke-width="0.4" stroke-linecap="round"/>
<path d="M43.5 45.5C44.5 46 44 47.5 43 47" stroke="#1D1D65" stroke-width="0.4" stroke-linecap="round"/>
<path d="M40.5 43C41.4329 42.6467 41.8939 42.6724 42.5 43.5" stroke="#1D1D65" stroke-width="0.4" stroke-linecap="round"/>
<path d="M48.5 55C51.0824 54.8436 52.3504 54.7398 54 54.5M48.5 53.5L53.5 53" stroke="#1D1D65" stroke-width="0.7" stroke-linecap="round"/>
<path d="M59 54C58.1815 55.2064 55.5 56 54 55" stroke="#1D1D65" stroke-width="0.7" stroke-linecap="round"/>
</svg>
